<?xml version="1.0" encoding="utf-8"?>
<!-- Generator: Adobe Illustrator 19.2.1, SVG Export Plug-In . SVG Version: 6.00 Build 0)  -->
<svg version="1.1" id="Layer_1" xmlns="http://www.w3.org/2000/svg" xmlns:xlink="http://www.w3.org/1999/xlink" x="0px" y="0px"
	 viewBox="0 0 1001.7 550" style="enable-background:new 0 0 1001.7 550;" xml:space="preserve">
<style type="text/css">
	.st0{fill:#80CFD3;stroke:#80CFD3;stroke-width:0.25;stroke-linejoin:round;stroke-miterlimit:1;}
	.st1{fill:#8BD3DA;stroke:#8BD3DA;stroke-width:0.25;stroke-linejoin:round;stroke-miterlimit:1;}
	.st2{fill:#67BAB1;stroke:#67BAB1;stroke-width:0.25;stroke-linejoin:round;stroke-miterlimit:1;}
	.st3{fill:#A6DCE7;stroke:#A6DCE7;stroke-width:0.25;stroke-linejoin:round;stroke-miterlimit:1;}
	.st4{fill:#8AD3DD;stroke:#8AD3DD;stroke-width:0.25;stroke-linejoin:round;stroke-miterlimit:1;}
	.st5{fill:#BBE4ED;stroke:#BBE4ED;stroke-width:0.25;stroke-linejoin:round;stroke-miterlimit:1;}
	.st6{fill:#E4F3F7;stroke:#E4F3F7;stroke-width:0.25;stroke-linejoin:round;stroke-miterlimit:1;}
	.st7{fill:#7CCCC8;stroke:#7CCCC8;stroke-width:0.25;stroke-linejoin:round;stroke-miterlimit:1;}
	.st8{fill:#74C3C1;stroke:#74C3C1;stroke-width:0.25;stroke-linejoin:round;stroke-miterlimit:1;}
	.st9{fill:#88D2DD;stroke:#88D2DD;stroke-width:0.25;stroke-linejoin:round;stroke-miterlimit:1;}
	.st10{fill:#8AD3E4;stroke:#8AD3E4;stroke-width:0.25;stroke-linejoin:round;stroke-miterlimit:1;}
	.st11{fill:#64B7AA;stroke:#64B7AA;stroke-width:0.25;stroke-linejoin:round;stroke-miterlimit:1;}
	.st12{fill:#9FDAE4;stroke:#9FDAE4;stroke-width:0.25;stroke-linejoin:round;stroke-miterlimit:1;}
	.st13{fill:#A8DEED;stroke:#A8DEED;stroke-width:0.25;stroke-linejoin:round;stroke-miterlimit:1;}
	.st14{fill:#B1E1F1;stroke:#B1E1F1;stroke-width:0.25;stroke-linejoin:round;stroke-miterlimit:1;}
	.st15{fill:#A0DCF4;stroke:#A0DCF4;stroke-width:0.25;stroke-linejoin:round;stroke-miterlimit:1;}
	.st16{fill:#9CD9E7;stroke:#9CD9E7;stroke-width:0.25;stroke-linejoin:round;stroke-miterlimit:1;}
	.st17{fill:#71C1BC;stroke:#71C1BC;stroke-width:0.25;stroke-linejoin:round;stroke-miterlimit:1;}
	.st18{fill:#9CD8E0;stroke:#9CD8E0;stroke-width:0.25;stroke-linejoin:round;stroke-miterlimit:1;}
	.st19{fill:#B2E1ED;stroke:#B2E1ED;stroke-width:0.25;stroke-linejoin:round;stroke-miterlimit:1;}
	.st20{fill:#7ACCCF;stroke:#7ACCCF;stroke-width:0.25;stroke-linejoin:round;stroke-miterlimit:1;}
	.st21{fill:#D4EDF3;stroke:#D4EDF3;stroke-width:0.25;stroke-linejoin:round;stroke-miterlimit:1;}
	.st22{fill:#7ACCC9;stroke:#7ACCC9;stroke-width:0.25;stroke-linejoin:round;stroke-miterlimit:1;}
	.st23{fill:#8DD3D8;stroke:#8DD3D8;stroke-width:0.25;stroke-linejoin:round;stroke-miterlimit:1;}
	.st24{fill:#6EBEBA;stroke:#6EBEBA;stroke-width:0.25;stroke-linejoin:round;stroke-miterlimit:1;}
	.st25{fill:#80CED0;stroke:#80CED0;stroke-width:0.25;stroke-linejoin:round;stroke-miterlimit:1;}
	.st26{fill:#8CD4E1;stroke:#8CD4E1;stroke-width:0.25;stroke-linejoin:round;stroke-miterlimit:1;}
	.st27{fill:#CDEBF1;stroke:#CDEBF1;stroke-width:0.25;stroke-linejoin:round;stroke-miterlimit:1;}
	.st28{fill:#ADE0F0;stroke:#ADE0F0;stroke-width:0.25;stroke-linejoin:round;stroke-miterlimit:1;}
	.st29{fill:#B9E3EC;stroke:#B9E3EC;stroke-width:0.25;stroke-linejoin:round;stroke-miterlimit:1;}
	.st30{fill:#8DD4E0;stroke:#8DD4E0;stroke-width:0.25;stroke-linejoin:round;stroke-miterlimit:1;}
	.st31{fill:#69BAB3;stroke:#69BAB3;stroke-width:0.25;stroke-linejoin:round;stroke-miterlimit:1;}
	.st32{fill:#CCEAF1;stroke:#CCEAF1;stroke-width:0.25;stroke-linejoin:round;stroke-miterlimit:1;}
	.st33{fill:#9BD9E6;stroke:#9BD9E6;stroke-width:0.25;stroke-linejoin:round;stroke-miterlimit:1;}
	.st34{fill:#A6DDF0;stroke:#A6DDF0;stroke-width:0.25;stroke-linejoin:round;stroke-miterlimit:1;}
	.st35{fill:#A3DDF8;stroke:#A3DDF8;stroke-width:0.25;stroke-linejoin:round;stroke-miterlimit:1;}
	.st36{fill:#79CAC7;stroke:#79CAC7;stroke-width:0.25;stroke-linejoin:round;stroke-miterlimit:1;}
	.st37{fill:#1A1A1A;}
</style>
<g>
	<polygon class="st0" points="398.8,218.5 300.2,287 407.9,287.7 	"/>
	<polygon class="st1" points="407.9,287.7 303,304.5 372.2,357.7 	"/>
	<polyline class="st2" points="407.9,287.7 300.2,287 303,304.5 407.9,287.7 	"/>
	<polygon class="st3" points="285.5,198.9 300.2,287 398.8,218.5 	"/>
	<polygon class="st4" points="372.2,357.7 303,304.5 327.5,361.2 	"/>
	<polyline class="st5" points="285.5,198.9 243.5,220.6 300.2,287 285.5,198.9 	"/>
	<polyline class="st6" points="327.5,361.2 261.7,319.2 254,321.3 327.5,361.2 	"/>
	<polyline class="st7" points="327.5,361.2 254,321.3 231.7,419.2 327.5,361.2 	"/>
	<polygon class="st8" points="327.5,361.2 231.7,419.2 299.5,433.9 	"/>
	<polyline class="st9" points="327.5,361.2 303,304.5 261.7,319.2 327.5,361.2 	"/>
	<polyline class="st10" points="249.8,101 263.1,29.6 231,79.3 249.8,101 	"/>
	<polygon class="st11" points="299.5,433.9 231.7,419.2 273.6,452.1 	"/>
	<polygon class="st12" points="300.2,287 243.5,220.6 261.7,319.2 	"/>
	<polygon class="st11" points="303,304.5 300.2,287 261.7,319.2 	"/>
	<polygon class="st13" points="249.8,101 226.1,211.5 285.5,198.9 	"/>
	<polyline class="st14" points="249.8,101 205.1,201.7 226.1,211.5 249.8,101 	"/>
	<polygon class="st15" points="261.7,319.2 243.5,220.6 254,321.3 	"/>
	<polygon class="st16" points="254,321.3 218.4,414.3 231.7,419.2 	"/>
	<polyline class="st6" points="285.5,198.9 226.1,211.5 243.5,220.6 285.5,198.9 	"/>
	<line class="st17" x1="231" y1="529.1" x2="142.1" y2="463.3"/>
	<polygon class="st18" points="254,321.3 196.7,319.9 218.4,414.3 	"/>
	<polygon class="st19" points="254,321.3 243.5,220.6 196.7,319.9 	"/>
	<polygon class="st20" points="273.6,452.1 231.7,419.2 231,508.1 	"/>
	<polygon class="st21" points="243.5,220.6 226.1,211.5 196.7,319.9 	"/>
	<polygon class="st22" points="263.1,29.6 162.4,40.8 231,79.3 	"/>
	<polygon class="st23" points="218.4,414.3 196.7,319.9 197.4,415.7 	"/>
	<polyline class="st24" points="231,508.1 218.4,414.3 197.4,415.7 231,508.1 	"/>
	<polyline class="st25" points="231,508.1 231.7,419.2 218.4,414.3 231,508.1 	"/>
	<polyline class="st26" points="249.8,101 231,79.3 205.1,201.7 249.8,101 	"/>
	<polygon class="st27" points="226.1,211.5 205.1,201.7 196.7,319.9 	"/>
	<polygon class="st28" points="231,79.3 104.3,180.7 205.1,201.7 	"/>
	<polyline class="st29" points="231,508.1 197.4,415.7 142.1,463.3 231,508.1 	"/>
	<polygon class="st30" points="231,79.3 162.4,40.8 104.3,180.7 	"/>
	<polygon class="st31" points="231,508.1 142.1,463.3 231,529.1 	"/>
	<polygon class="st32" points="205.1,201.7 110.6,196.1 196.7,319.9 	"/>
	<polygon class="st23" points="197.4,415.7 196.7,319.9 131.6,415.7 	"/>
	<polyline class="st33" points="63.8,115.7 104.3,180.7 162.4,40.8 63.8,115.7 	"/>
	<polygon class="st34" points="196.7,319.9 110.6,196.1 66.6,338.8 	"/>
	<polygon class="st35" points="205.1,201.7 104.3,180.7 110.6,196.1 	"/>
	<polygon class="st36" points="197.4,415.7 131.6,415.7 142.1,463.3 	"/>
</g>
<g>
	<g>
		<path class="st37" d="M638,311.8c-0.3-1.6-0.7-3.3-1.1-4.9c-0.5-1.9-1.2-3.7-2-5.5c-0.1-0.2-0.2-0.5-0.3-0.7
			c-7-15.3-22.3-26.2-40-26.5c-15.3-0.3-28.9,7.2-37.2,18.7c-1.8,2.4-3.3,5.1-4.6,7.9c-0.1,0.2-0.2,0.4-0.3,0.7
			c-0.8,1.8-1.4,3.6-2,5.5c-0.5,1.6-0.8,3.2-1.1,4.9c-0.3,1.5-0.5,3.1-0.6,4.7c-0.1,1.3-0.1,2.5-0.1,3.8c0,2.1,0.2,4.2,0.6,6.2
			c0.3,1.9,0.7,3.7,1.2,5.5c5.4,18.5,22.3,32.3,42.4,32.7c15.3,0.3,28.9-7.2,37.2-18.7l-23.2-8.5c-3.3,3.1-7.6,4.9-12.1,5.1
			c-7.8,0.4-14.4-3.5-17.9-10.7c-0.8-1.7-1.5-3.5-1.9-5.5h1.5h36.5h25.3c0.2-1.3,0.4-2.7,0.5-4.1c0.1-1.3,0.1-2.5,0.1-3.8
			C638.6,316.3,638.4,314,638,311.8z M574.8,311.8c0.5-1.7,1.1-3.4,1.9-4.9c1.1-2.1,2.4-3.9,4-5.5h0.1l-0.1,0
			c0.2-0.2,0.5-0.4,0.7-0.6c3.2-2.8,7.1-4.6,11.3-4.8c5.2-0.3,9.8,1.5,13.4,4.8c0.2,0.2,0.5,0.4,0.7,0.7c1.5,1.5,2.8,3.4,3.8,5.5
			c0.7,1.5,1.3,3.1,1.8,4.9h-3.1H574.8z"/>
		<path class="st37" d="M346.1,213.8c0-17.1-10.4-31.8-25.2-38.1c-5-2.1-10.4-3.3-16.1-3.3H256h-0.1l0.1,115.2h25.1v-32.5h18.6
			l15.9,32.5h27.4l-18.8-37.4C337.2,243.3,346.1,229.6,346.1,213.8z M321,213.8c0,9-7.3,16.3-16.3,16.3h-23.5v-32.5h23.5
			C313.7,197.6,321,204.8,321,213.8z"/>
		<path class="st37" d="M377.3,250.7v-8.9L356,261.4l21.3,20.4v-8.9c20.3,0,32.4,17.6,32.4,35.5c0,17.9-12.5,36.1-32.4,36.1
			c-21.6,0-32.4-18.2-32.4-36.1h-25.2c0,31.8,25.8,57.6,57.6,57.6c31.8,0,57.6-25.8,57.6-57.6C434.9,276.5,409.1,250.7,377.3,250.7z
			"/>
		<path class="st37" d="M908.1,329.1c-2.8,8.4-9.7,13.2-17.4,13.6c-8.8,0.4-16-4.6-19.2-13.7c-0.7-2-1.2-4.2-1.4-6.6
			c-0.1-1.3-0.2-2.6-0.2-4c0-0.6,0-1.3,0.1-1.9c0.2-2.4,0.6-4.6,1.4-6.7c2.9-8.1,9.7-13.5,17.3-13.9c8.8-0.4,16,4.8,19.1,14
			l24.7-4.4c-5.8-17.8-22.4-31-41.9-31.3c-20.4-0.4-37.7,13-43.7,31.3c-1.3,3.9-2,8.1-2.2,12.4c0,0.8,0,1.6,0,2.4c0,0.2,0,0.5,0,0.7
			c0.1,4.3,0.9,8.4,2.2,12.4c5.8,17.8,22.4,31,41.9,31.3c20.4,0.4,37.7-13,43.7-31.3L908.1,329.1z"/>
		<rect x="944.9" y="276.9" class="st37" width="25.1" height="85.9"/>
		<path class="st37" d="M968.1,260.2H947c-1.1,0-2.1-0.9-2.1-2.1V237c0-1.1,0.9-2.1,2.1-2.1h21.1c1.1,0,2.1,0.9,2.1,2.1v21.1
			C970.2,259.2,969.3,260.2,968.1,260.2z"/>
		<path class="st37" d="M828.9,308.1c-7.7-9.8-26.8-16.6-36.1-20c-8.3-3-11.3-5.4-11.2-9.5c0.3-7.8,7.9-9.5,13-9.5
			c11.3,0,13,11.9,13,11.9l22.2-5.5c0,0-4.3-28.1-38.9-28.1c-11.2,0-23.4,6.6-29.8,15c-5.7,7.5-6.4,16.7-2.7,25.9
			c4.9,12.3,15,16,25.2,19.7c7.6,2.8,17.8,5.6,24.2,12c3.1,3.1,3.7,8.4,1.5,12.9c-2.3,4.9-8.8,8.3-15.1,8.3
			c-13.8,0-19.4-12.4-19.6-12.9l-0.7-1.7l-25,5l0.6,2.1c0.1,0.3,2.3,7.8,9,15.4c6.2,7,17.5,15.4,36.4,15.4
			c16.1,0,28.9-6.9,35.8-19.4C837.3,333.5,837.5,319.1,828.9,308.1z"/>
		<path class="st37" d="M497.3,274.4c-9.1-0.2-18.5,2.4-23.4,7v-4.2h-25.1V403h25.1v-45c4.4,4.2,13.3,6.7,21.7,6.9
			c25.5,0.5,43.5-20.6,43.1-46.1C538.2,294.7,521.3,274.8,497.3,274.4z M494.7,342.9c-11.7,0.6-20.7-8.5-20.8-24v-0.5
			c0.1-12.6,8.7-21.8,18.7-22.3c11.7-0.6,20.8,9.1,20.8,24.6C513.4,334.3,504.8,342.4,494.7,342.9z"/>
	</g>
	<path class="st37" d="M696.4,274.6c-15,0-22,9.9-22,9.9v-7.6H651v85.9h23.4c0,0,0-27.2,0-40.4c0-14.1,6.5-25.3,18-25.3
		s17.7,10,17.7,25.3v40.4h23.7c0,0,0-38.6,0-47.9C733.7,305.7,731.6,274.6,696.4,274.6z"/>
</g>
</svg>
