<?xml version="1.0" encoding="UTF-8" standalone="no"?>
<svg
   xmlns:dc="http://purl.org/dc/elements/1.1/"
   xmlns:cc="http://creativecommons.org/ns#"
   xmlns:rdf="http://www.w3.org/1999/02/22-rdf-syntax-ns#"
   xmlns:svg="http://www.w3.org/2000/svg"
   xmlns="http://www.w3.org/2000/svg"
   xmlns:sodipodi="http://sodipodi.sourceforge.net/DTD/sodipodi-0.dtd"
   xmlns:inkscape="http://www.inkscape.org/namespaces/inkscape"
   id="svg8"
   version="1.1"
   viewBox="0 0 43.899999 50.799998"
   height="5.0799999cm"
   width="4.3899999cm"
   sodipodi:docname="visdat.svg"
   inkscape:version="0.92.2 (5c3e80d, 2017-08-06)">
  <sodipodi:namedview
     pagecolor="#ffffff"
     bordercolor="#666666"
     borderopacity="1"
     objecttolerance="10"
     gridtolerance="10"
     guidetolerance="10"
     inkscape:pageopacity="0"
     inkscape:pageshadow="2"
     inkscape:window-width="716"
     inkscape:window-height="480"
     id="namedview41"
     showgrid="false"
     inkscape:zoom="1.2291667"
     inkscape:cx="82.960627"
     inkscape:cy="95.999999"
     inkscape:window-x="0"
     inkscape:window-y="40"
     inkscape:window-maximized="0"
     inkscape:current-layer="svg8" />
  <defs
     id="defs2" />
  <metadata
     id="metadata5">
    <rdf:RDF>
      <cc:Work
         rdf:about="">
        <dc:format>image/svg+xml</dc:format>
        <dc:type
           rdf:resource="http://purl.org/dc/dcmitype/StillImage" />
        <dc:title />
      </cc:Work>
    </rdf:RDF>
  </metadata>
  <path
     inkscape:connector-curvature="0"
     style="opacity:1;vector-effect:none;fill:#666666;fill-opacity:1;fill-rule:evenodd;stroke:none;stroke-width:0.02438436;stroke-linecap:square;stroke-linejoin:miter;stroke-miterlimit:4;stroke-dasharray:none;stroke-dashoffset:0;stroke-opacity:1;paint-order:normal"
     id="path1319"
     d="M 21.949999,50.799994 2.834203e-7,38.099995 -6.060344e-7,12.699995 21.949998,-5.3600089e-6 43.899997,12.699993 l 10e-7,25.4 z" />
  <path
     inkscape:connector-curvature="0"
     style="opacity:1;vector-effect:none;fill:#ffffff;fill-opacity:1;stroke:none;stroke-width:0.37693912;stroke-linecap:butt;stroke-linejoin:miter;stroke-miterlimit:4;stroke-dasharray:none;stroke-dashoffset:0;stroke-opacity:1;paint-order:normal"
     d="m 22.210667,7.03378 c -7.23716,0 -13.07529,5.08146 -13.07529,11.31927 0,6.23782 5.83813,11.31905 13.07529,11.31905 7.23716,0 13.07533,-5.08123 13.07533,-11.31905 0,-6.23781 -5.83817,-11.31927 -13.07533,-11.31927 z"
     id="ellipse1321" />
  <path
     inkscape:connector-curvature="0"
     style="opacity:1;vector-effect:none;fill:#ef766e;fill-opacity:1;stroke:none;stroke-width:0.0811668;stroke-linecap:butt;stroke-linejoin:miter;stroke-miterlimit:4;stroke-dasharray:none;stroke-dashoffset:0;stroke-opacity:1;paint-order:normal"
     d="m 16.735777,9.10533 -3.07656,1.78007 1.77626,3.08316 3.07656,-1.78007 -1.77626,-3.08312 z"
     id="path1323" />
  <path
     inkscape:connector-curvature="0"
     style="opacity:1;vector-effect:none;fill:#41bdc2;fill-opacity:1;stroke:none;stroke-width:0.0811668;stroke-linecap:butt;stroke-linejoin:miter;stroke-miterlimit:4;stroke-dasharray:none;stroke-dashoffset:0;stroke-opacity:1;paint-order:normal"
     d="m 16.735797,9.10536 -1e-5,-3e-5 -3.07657,1.78006 1.77625,3.08316 1.3003,-4.8632 z"
     id="path1325" />
  <path
     inkscape:connector-curvature="0"
     style="opacity:1;vector-effect:none;fill:#323232;fill-opacity:1;stroke:none;stroke-width:0.08116348;stroke-linecap:butt;stroke-linejoin:miter;stroke-miterlimit:4;stroke-dasharray:none;stroke-dashoffset:0;stroke-opacity:1;paint-order:normal"
     d="m 27.685757,9.09162 -1.77615,3.08304 3.0764,1.77999 v 0 -3e-5 l 1.7762,-3.083 z"
     id="path1333" />
  <path
     inkscape:connector-curvature="0"
     style="opacity:1;vector-effect:none;fill:#cccccc;fill-opacity:1;stroke:none;stroke-width:0.08156051;stroke-linecap:butt;stroke-linejoin:miter;stroke-miterlimit:4;stroke-dasharray:none;stroke-dashoffset:0;stroke-opacity:1;paint-order:normal"
     d="m 27.685777,9.09162 1.27733,4.84975 0.0229,0.0133 v 0 0 l 1.7762,-3.08302 z"
     id="path1335" />
  <path
     inkscape:connector-curvature="0"
     style="color:#000000;font-style:normal;font-variant:normal;font-weight:normal;font-stretch:normal;font-size:medium;line-height:normal;font-family:sans-serif;font-variant-ligatures:normal;font-variant-position:normal;font-variant-caps:normal;font-variant-numeric:normal;font-variant-alternates:normal;font-feature-settings:normal;text-indent:0;text-align:start;text-decoration:none;text-decoration-line:none;text-decoration-style:solid;text-decoration-color:#000000;letter-spacing:normal;word-spacing:normal;text-transform:none;writing-mode:lr-tb;direction:ltr;text-orientation:mixed;dominant-baseline:auto;baseline-shift:baseline;text-anchor:start;white-space:normal;shape-padding:0;clip-rule:nonzero;display:inline;overflow:visible;visibility:visible;opacity:1;isolation:auto;mix-blend-mode:normal;color-interpolation:sRGB;color-interpolation-filters:linearRGB;solid-color:#000000;solid-opacity:1;vector-effect:none;fill:#666666;fill-opacity:1;fill-rule:nonzero;stroke:none;stroke-width:0.74717128;stroke-linecap:butt;stroke-linejoin:miter;stroke-miterlimit:4;stroke-dasharray:none;stroke-dashoffset:0;stroke-opacity:1;color-rendering:auto;image-rendering:auto;shape-rendering:auto;text-rendering:auto;enable-background:accumulate"
     d="m 9.100427,11.78892 h 10e-4 c -0.20305,-10e-4 -0.40044,0.003 -0.58677,0.0152 -0.4969,0.0319 -0.91777,0.0574 -1.23807,0.37835 l -0.0187,0.0189 -0.016,0.0213 c -0.15152,0.20243 -0.222,0.43764 -0.28966,0.72926 -0.0676,0.29161 -0.11902,0.63688 -0.16032,1.02442 -0.0625,0.5863 -0.0958,1.27803 -0.11817,1.98953 -0.16411,-0.12761 -0.32706,-0.26722 -0.48874,-0.42143 -0.025,-0.0239 -0.0504,-0.0487 -0.0757,-0.0736 0.008,-0.0836 0.0215,-0.1668 0.0222,-0.25091 v -10e-4 -10e-4 c 10e-6,-1.55443 -1.26537,-2.82253 -2.81648,-2.82252 -1.55109,0 -2.81650002,1.2681 -2.81648002,2.82252 -2e-5,1.55442 1.26539002,2.8225 2.81648002,2.82252 0.32736,-9.9e-4 0.64615,-0.075 0.95241,-0.18678 0.007,0.007 0.0137,0.0132 0.0206,0.0199 0.76362,0.73889 1.35298,1.27532 2.3682,1.52867 0.005,0.28593 0.0105,0.55906 0.0167,0.80153 -0.0987,0.094 -0.18446,0.20352 -0.21506,0.36288 -0.63851,3.32398 -0.18987,7.2123 -0.005,9.34984 0.0224,0.25868 0.17762,0.41156 0.35617,0.54228 0.10158,1.59438 0.28365,4.17484 0.53654,6.46955 0.13005,1.18022 0.27736,2.27463 0.44327,3.11244 0.083,0.41891 0.16953,0.77242 0.26806,1.05298 0.0962,0.27386 0.15115,0.5022 0.44176,0.65745 0.11678,0.0724 0.16945,0.0698 0.24646,0.0842 0.0829,0.0156 0.17896,0.0282 0.29472,0.0405 0.23152,0.0246 0.5393,0.0463 0.91868,0.0665 0.75875,0.0403 1.80061,0.0738 3.03462,0.10046 2.46804,0.0534 5.70271,0.0799 8.94094,0.0799 3.23821,0 6.47933,-0.0266 8.96061,-0.0799 1.24063,-0.0267 2.29077,-0.0601 3.0593,-0.10046 0.38426,-0.0202 0.69757,-0.0418 0.93431,-0.0662 0.11838,-0.0122 0.21716,-0.025 0.30179,-0.0402 0.0846,-0.0152 0.13749,-0.0124 0.2592,-0.0821 l 0.003,-0.002 0.003,-0.002 c 0.23974,-0.14415 0.32239,-0.34579 0.41882,-0.58554 0.0964,-0.23976 0.17945,-0.53307 0.25827,-0.87763 0.15761,-0.68915 0.29443,-1.58095 0.41569,-2.56853 0.22826,-1.859 0.39345,-4.02159 0.50704,-5.75365 h 0.003 l 0.0224,-0.34994 c 9.8e-4,-0.0119 10e-4,-0.0206 0.002,-0.0295 0.0276,-0.43318 0.0487,-0.80143 0.0684,-1.14742 0.16303,-0.12145 0.30546,-0.26237 0.33963,-0.49987 0.29133,-2.02562 0.81793,-5.84961 -0.006,-9.38516 -0.0379,-0.16245 -0.12996,-0.27089 -0.23511,-0.36366 0.0111,-1.16864 0.0143,-2.89289 -0.0428,-4.45298 -0.0298,-0.81433 -0.0753,-1.57488 -0.14612,-2.18018 -0.0354,-0.30265 -0.0767,-0.56601 -0.12911,-0.78587 -0.0524,-0.21988 -0.0922,-0.39143 -0.24113,-0.56551 l -0.0395,-0.046 -0.0519,-0.0313 c -0.16969,-0.10202 -0.31192,-0.11725 -0.4959,-0.14178 -0.18399,-0.0245 -0.39859,-0.0384 -0.63734,-0.0461 -0.47749,-0.0155 -1.04957,-0.005 -1.60428,0.0151 -0.72754,0.0285 -1.45484,0.0673 -2.18084,0.12322 -6.35819,2.14869 -12.82749,1.98121 -19.38342,0.008 -0.74897,-0.0929 -1.52274,-0.20068 -2.15947,-0.25067 -0.2765,-0.0203 -0.55855,-0.0358 -0.83355,-0.0423 v 0 c -0.0687,-0.002 -0.13705,-0.003 -0.20473,-0.003 z m 1.78326,0.61231 -0.7123,1.12286 9.85842,2.74739 13.26351,-2.92902 -0.73271,-0.57536 c 0.37181,-0.0227 0.839,-0.0481 1.32886,-0.0659 0.54516,-0.0198 1.10608,-0.0294 1.55316,-0.0149 0.22355,0.007 0.41912,0.0208 0.56297,0.0399 0.0953,0.0127 0.10863,0.0194 0.13937,0.0276 0.01,0.026 0.0305,0.0593 0.0615,0.18927 0.0413,0.17326 0.0804,0.41429 0.11372,0.69918 0.0667,0.56978 0.11228,1.31728 0.14166,2.12048 0.0587,1.6064 0.0538,3.43951 0.0416,4.59804 l -0.002,0.20894 0.1765,0.11142 c 0.0628,0.0397 0.0842,0.0705 0.0877,0.0717 0.77026,3.34095 0.27647,7.06606 -0.0129,9.07769 0.0118,-0.0818 0.003,-0.002 -0.15747,0.0962 l -0.16731,0.10235 -0.011,0.19608 c -0.0212,0.37833 -0.0464,0.80998 -0.0774,1.29919 l -9.9e-4,0.0124 -0.002,0.0294 c -0.11271,1.76809 -0.28937,4.11272 -0.52848,6.0601 -0.11955,0.97369 -0.25543,1.84931 -0.40261,2.4928 -0.0736,0.32174 -0.15099,0.58607 -0.22296,0.76505 -0.0567,0.14087 -0.10686,0.19937 -0.10719,0.21014 -0.007,0.002 -0.009,0.004 -0.0171,0.005 -0.0544,0.01 -0.13928,0.0212 -0.24651,0.0323 -0.21443,0.0222 -0.51952,0.0437 -0.89675,0.0635 -0.75445,0.0396 -1.80005,0.0729 -3.03638,0.0995 -2.47265,0.0532 -5.71043,0.0797 -8.94456,0.0797 -3.23413,0 -6.46538,-0.0265 -8.92471,-0.0797 -1.22966,-0.0266 -2.26685,-0.0599 -3.01113,-0.0995 -0.37214,-0.0198 -0.67171,-0.0413 -0.87975,-0.0634 -0.0995,-0.0106 -0.17516,-0.0214 -0.22555,-0.0305 -0.007,-0.0228 -0.0792,-0.1058 -0.132,-0.25606 -0.0779,-0.2218 -0.16089,-0.5513 -0.23993,-0.95045 -0.15809,-0.79831 -0.30482,-1.87996 -0.43363,-3.04887 -0.25762,-2.3378 -0.44626,-5.03019 -0.54541,-6.60304 l -0.0124,-0.19563 -0.16763,-0.10124 c -0.17256,-0.10413 -0.17331,-0.18405 -0.16556,-0.0944 -0.18609,-2.15396 -0.6068,-5.96582 -0.0102,-9.11169 0.007,-0.007 0.026,-0.0296 0.07,-0.0589 l 0.17251,-0.11456 -0.006,-0.20719 c -0.01,-0.36101 -0.0194,-0.78169 -0.0262,-1.24751 l -0.004,-0.31073 -0.30565,-0.0524 c -1.05518,-0.1807 -1.43234,-0.59322 -2.28014,-1.41356 -0.0605,-0.0586 -0.11908,-0.11555 -0.18541,-0.17909 l -0.18634,-0.17863 -0.23262,0.11166 c -0.27731,0.13296 -0.58059,0.20239 -0.88793,0.20318 -1.14771,-2e-5 -2.07003,-0.92451 -2.07003,-2.0747 0,-1.15018 0.92232,-2.07449 2.07003,-2.07451 1.14767,-1e-5 2.06998,0.92418 2.07007,2.07428 -9.7e-4,0.11165 -0.0109,0.22317 -0.0297,0.33322 l -0.0321,0.18807 0.13334,0.13657 c 0.0338,0.0347 0.0676,0.0685 0.10122,0.10176 0.006,0.006 0.0109,0.0108 0.0141,0.0139 0.0324,0.0319 0.0651,0.0637 0.0983,0.0954 0.37138,0.3542 0.75882,0.65674 1.16694,0.8943 l 0.54908,0.31981 0.0114,-0.63639 c 0.0169,-0.94417 0.0577,-1.87116 0.13624,-2.60796 0.0393,-0.3684 0.0883,-0.68956 0.1451,-0.93456 0.0527,-0.22723 0.11819,-0.36813 0.14819,-0.41742 0.0311,-0.0119 0.32104,-0.12696 0.7351,-0.15352 0.21883,-0.014 0.46596,-0.0163 0.72522,-0.0102 0.25926,0.006 0.53044,0.0203 0.79724,0.0399 z m -2.03234,28.69298 c 0.004,0.002 0.003,9.7e-4 0.006,0.002 0.002,9.9e-4 0.004,0.003 0.007,0.004 z"
     id="path1341" />
  <path
     inkscape:connector-curvature="0"
     style="fill:#ff9955;fill-opacity:1;stroke:none;stroke-width:0.0233491px;stroke-linecap:butt;stroke-linejoin:miter;stroke-opacity:1"
     d="m 7.024617,19.1172 c -1.22433,-0.20966 -1.6932,-0.76458 -2.6605,-1.69102 -0.003,-0.95204 -0.20692,-2.05722 1.35927,-1.81273 m 0,0 c 0.41801,0.42793 0.85073,0.78131 1.30159,1.04375 1.94618,1.3433 0.86805,1.87346 0,2.46"
     id="path1343" />
  <path
     inkscape:connector-curvature="0"
     style="opacity:1;vector-effect:none;fill:#95b2d2;fill-opacity:1;stroke:none;stroke-width:0.08120003;stroke-linecap:butt;stroke-linejoin:miter;stroke-miterlimit:4;stroke-dasharray:none;stroke-dashoffset:0;stroke-opacity:1;paint-order:normal"
     d="m 20.433747,7.94283 v 3.5616 h 3.55394 v 0 -3.5616 h -3.55391 z"
     id="path1345" />
  <path
     inkscape:connector-curvature="0"
     style="opacity:1;vector-effect:none;fill:#eaeaea;fill-opacity:1;stroke:none;stroke-width:0.08120003;stroke-linecap:butt;stroke-linejoin:miter;stroke-miterlimit:4;stroke-dasharray:none;stroke-dashoffset:0;stroke-opacity:1;paint-order:normal"
     d="M 22.224297,9.7372 23.987717,7.97 V 7.9428 h -3.55395 z"
     id="path1347" />
  <path
     inkscape:connector-curvature="0"
     style="opacity:1;vector-effect:none;fill:#fa8072;fill-opacity:1;stroke:none;stroke-width:0.08120003;stroke-linecap:butt;stroke-linejoin:miter;stroke-miterlimit:4;stroke-dasharray:none;stroke-dashoffset:0;stroke-opacity:1;paint-order:normal"
     d="m 23.987727,7.94287 v -2e-5 l -3.55395,3.56156 h 3.55397 z"
     id="path1349" />
  <path
     inkscape:connector-curvature="0"
     style="opacity:1;vector-effect:none;fill:#f56c4f;fill-opacity:1;fill-rule:evenodd;stroke:none;stroke-width:0.0233491;stroke-linecap:square;stroke-linejoin:miter;stroke-miterlimit:4;stroke-dasharray:none;stroke-dashoffset:0;stroke-opacity:1;paint-order:normal"
     d="m 7.540677,12.44707 c 0.63793,-0.63929 4.66526,0 4.66526,0 0,0 3.77325,1.54497 9.76872,1.54497 5.99549,0 9.76873,-1.54497 9.76873,-1.54497 0,0 4.13366,-0.31964 4.66526,0 0.63794,0.74585 0.4511,9.09408 0.4511,9.09408 v 7.36788 c 0,0 -0.53162,11.8803 -1.59484,12.51962 -0.74425,0.42619 -25.94256,0.42619 -26.58049,0 -0.9569,-0.47948 -1.59483,-12.51962 -1.59483,-12.51962 v -7.36788 c 0,0 -0.34633,-8.02857 0.45109,-9.09408 z"
     id="path1355" />
  <path
     inkscape:connector-curvature="0"
     style="color:#000000;font-style:normal;font-variant:normal;font-weight:normal;font-stretch:normal;font-size:medium;line-height:normal;font-family:sans-serif;font-variant-ligatures:normal;font-variant-position:normal;font-variant-caps:normal;font-variant-numeric:normal;font-variant-alternates:normal;font-feature-settings:normal;text-indent:0;text-align:start;text-decoration:none;text-decoration-line:none;text-decoration-style:solid;text-decoration-color:#000000;letter-spacing:normal;word-spacing:normal;text-transform:none;writing-mode:lr-tb;direction:ltr;text-orientation:mixed;dominant-baseline:auto;baseline-shift:baseline;text-anchor:start;white-space:normal;shape-padding:0;clip-rule:nonzero;display:inline;overflow:visible;visibility:visible;opacity:1;isolation:auto;mix-blend-mode:normal;color-interpolation:sRGB;color-interpolation-filters:linearRGB;solid-color:#000000;solid-opacity:1;vector-effect:none;fill:#f35432;fill-opacity:1;fill-rule:evenodd;stroke:none;stroke-width:0.09339641;stroke-linecap:square;stroke-linejoin:miter;stroke-miterlimit:4;stroke-dasharray:none;stroke-dashoffset:0;stroke-opacity:1;paint-order:normal;color-rendering:auto;image-rendering:auto;shape-rendering:auto;text-rendering:auto;enable-background:accumulate"
     d="m 7.044117,20.10407 c 0.006,0.26258 0.013,0.50463 0.0193,0.70529 0.41957,0.17299 1.65527,-0.82832 2.32226,-0.76162 3.73184,-0.57466 7.51496,-0.74689 11.28418,-0.86462 5.09839,-0.0447 10.21879,0.24373 15.24709,1.11045 0.39997,0.11496 0.8129,0.27822 0.96021,0.0896 0.002,-0.16491 0.003,-0.34308 0.005,-0.53327 -4.19902,-1.36916 -20.8917,-2.33166 -29.83757,0.2542 z m 0.11466,9.98225 c 0.0196,0.31536 0.0709,0.93245 0.0984,1.33923 14.93835,3.24452 24.12179,1.61623 29.45275,0.16438 0.0328,-0.51503 0.0592,-0.96701 0.0812,-1.36076 -0.0429,-0.0342 -0.0874,-0.0681 -0.1343,-0.10163 -4.01708,1.18934 -8.21715,1.54062 -12.3718,1.90322 -4.37794,0.25188 -8.75106,-0.31491 -13.0699,-0.97693 -1.36675,-0.24886 -2.73877,-0.52139 -4.05639,-0.96751 z"
     id="path1357" />
  <path
     inkscape:connector-curvature="0"
     style="fill:#ffffff;stroke:none;stroke-width:0.02355869px;stroke-linecap:butt;stroke-linejoin:miter;stroke-opacity:1"
     d="m 12.225067,36.88045 5.14048,-0.11564 -0.29374,1.50339 c 0,0 -6.00006,-0.2094 -6.23442,0.8111 -0.37021,0.19431 -0.90979,0.15612 -0.90979,0.15612 z"
     id="path1359" />
  <path
     inkscape:connector-curvature="0"
     style="opacity:1;vector-effect:none;fill:#ff791f;fill-opacity:1;fill-rule:evenodd;stroke:none;stroke-width:0.03021066;stroke-linecap:square;stroke-linejoin:miter;stroke-miterlimit:4;stroke-dasharray:none;stroke-dashoffset:0;stroke-opacity:1;paint-order:normal"
     d="m 5.327927,15.57904 c -1.13428,-0.004 -0.96655,0.98436 -0.96381,1.84714 0.0651,0.0623 0.12307,0.11873 0.18404,0.17773 a 2.6825485,2.688298 0 0 0 1.37977,-1.78845 c -0.0686,-0.0654 -0.13676,-0.13261 -0.20454,-0.20201 -0.14683,-0.0229 -0.27813,-0.034 -0.39546,-0.0344 z"
     id="path1361" />
  <ellipse
     style="opacity:1;vector-effect:none;fill:#ff9146;fill-opacity:1;fill-rule:evenodd;stroke:none;stroke-width:0.02751653;stroke-linecap:square;stroke-linejoin:miter;stroke-miterlimit:4;stroke-dasharray:none;stroke-dashoffset:0;stroke-opacity:1;paint-order:normal"
     id="circle1363"
     cx="3.3151598"
     cy="15.2174"
     rx="2.4433243"
     ry="2.448561" />
  <path
     inkscape:connector-curvature="0"
     id="path1365"
     d="m 21.974107,18.71302 c 4.41017,0 14.87015,0.72868 15.14868,1.92383 0.80214,3.44217 0.29077,7.22513 0,9.24683 -0.17562,1.22097 -10.72454,2.66854 -15.14868,2.66854 -4.42416,0 -15.04228,-1.43694 -15.14868,-2.66854 -0.18569,-2.14935 -0.62197,-6.00889 0,-9.24683 0.23211,-1.20831 10.73851,-1.92383 15.14868,-1.92383 z"
     style="opacity:1;vector-effect:none;fill:#f56c4f;fill-opacity:1;fill-rule:evenodd;stroke:none;stroke-width:0.09121398;stroke-linecap:square;stroke-linejoin:miter;stroke-miterlimit:4;stroke-dasharray:none;stroke-dashoffset:0;stroke-opacity:1;paint-order:normal" />
  <path
     inkscape:connector-curvature="0"
     style="opacity:1;vector-effect:none;fill:#ef766e;fill-opacity:1;fill-rule:evenodd;stroke:none;stroke-width:0.0311108;stroke-linecap:square;stroke-linejoin:miter;stroke-miterlimit:4;stroke-dasharray:none;stroke-dashoffset:0;stroke-opacity:1;paint-order:normal"
     d="m 16.537727,19.88627 c -4.20814,0.25754 -8.71271,0.76237 -8.85957,1.45772 -0.58711,2.77962 -0.17527,6.09285 0,7.93798 0.0675,0.71052 4.61574,1.50007 8.85957,1.94192 z"
     id="path1367" />
  <path
     inkscape:connector-curvature="0"
     style="opacity:1;vector-effect:none;fill:#81ab1d;fill-opacity:1;fill-rule:evenodd;stroke:none;stroke-width:0.03219011;stroke-linecap:square;stroke-linejoin:miter;stroke-miterlimit:4;stroke-dasharray:none;stroke-dashoffset:0;stroke-opacity:1;paint-order:normal"
     d="m 21.977117,19.69247 c -1.89397,0 -4.97816,0.12751 -7.79911,0.3638 v 10.88887 c 2.82309,0.37459 5.90929,0.62763 7.79911,0.62763 0.5779,0 1.26687,-0.0239 2.02493,-0.0677 V 19.7284 c -0.7568,-0.0235 -1.44717,-0.036 -2.02493,-0.036 z"
     id="path1369" />
  <path
     inkscape:connector-curvature="0"
     style="opacity:1;vector-effect:none;fill:#41bdc2;fill-opacity:1;fill-rule:evenodd;stroke:none;stroke-width:0.02241196;stroke-linecap:square;stroke-linejoin:miter;stroke-miterlimit:4;stroke-dasharray:none;stroke-dashoffset:0;stroke-opacity:1;paint-order:normal"
     d="m 22.998117,19.70314 v 11.8495 c 1.49123,-0.0533 3.40162,-0.20951 5.30644,-0.42968 V 19.94762 c -1.90535,-0.13326 -3.81392,-0.21665 -5.30644,-0.24448 z"
     id="path1371" />
  <path
     inkscape:connector-curvature="0"
     style="opacity:1;vector-effect:none;fill:#c17ffd;fill-opacity:1;fill-rule:evenodd;stroke:none;stroke-width:0.03201276;stroke-linecap:square;stroke-linejoin:miter;stroke-miterlimit:4;stroke-dasharray:none;stroke-dashoffset:0;stroke-opacity:1;paint-order:normal"
     d="m 28.017737,19.92821 v 11.22693 c 4.04199,-0.45352 8.15234,-1.20288 8.25834,-1.87317 0.27447,-1.73553 0.75717,-4.98304 0,-7.93798 -0.16771,-0.65449 -4.24614,-1.14563 -8.25834,-1.41578 z"
     id="path1373" />
  <path
     inkscape:connector-curvature="0"
     id="path1375"
     d="m 7.539917,27.85328 c 0.0131,0.14341 0.0261,0.2829 0.0393,0.41857 h 6.5989 v -0.41857 z"
     style="color:#000000;font-style:normal;font-variant:normal;font-weight:normal;font-stretch:normal;font-size:medium;line-height:normal;font-family:sans-serif;font-variant-ligatures:normal;font-variant-position:normal;font-variant-caps:normal;font-variant-numeric:normal;font-variant-alternates:normal;font-feature-settings:normal;text-indent:0;text-align:start;text-decoration:none;text-decoration-line:none;text-decoration-style:solid;text-decoration-color:#000000;letter-spacing:normal;word-spacing:normal;text-transform:none;writing-mode:lr-tb;direction:ltr;text-orientation:mixed;dominant-baseline:auto;baseline-shift:baseline;text-anchor:start;white-space:normal;shape-padding:0;clip-rule:nonzero;display:inline;overflow:visible;visibility:visible;opacity:1;isolation:auto;mix-blend-mode:normal;color-interpolation:sRGB;color-interpolation-filters:linearRGB;solid-color:#000000;solid-opacity:1;vector-effect:none;fill:#7e7e7e;fill-opacity:1;fill-rule:nonzero;stroke:none;stroke-width:0.45334187;stroke-linecap:butt;stroke-linejoin:miter;stroke-miterlimit:4;stroke-dasharray:none;stroke-dashoffset:0;stroke-opacity:1;color-rendering:auto;image-rendering:auto;shape-rendering:auto;text-rendering:auto;enable-background:accumulate" />
  <path
     inkscape:connector-curvature="0"
     id="path1377"
     d="m 7.375107,24.91696 c 0.001,0.1403 0.004,0.27984 0.007,0.41852 h 6.79573 v -0.41852 z"
     style="color:#000000;font-style:normal;font-variant:normal;font-weight:normal;font-stretch:normal;font-size:medium;line-height:normal;font-family:sans-serif;font-variant-ligatures:normal;font-variant-position:normal;font-variant-caps:normal;font-variant-numeric:normal;font-variant-alternates:normal;font-feature-settings:normal;text-indent:0;text-align:start;text-decoration:none;text-decoration-line:none;text-decoration-style:solid;text-decoration-color:#000000;letter-spacing:normal;word-spacing:normal;text-transform:none;writing-mode:lr-tb;direction:ltr;text-orientation:mixed;dominant-baseline:auto;baseline-shift:baseline;text-anchor:start;white-space:normal;shape-padding:0;clip-rule:nonzero;display:inline;overflow:visible;visibility:visible;opacity:1;isolation:auto;mix-blend-mode:normal;color-interpolation:sRGB;color-interpolation-filters:linearRGB;solid-color:#000000;solid-opacity:1;vector-effect:none;fill:#7e7e7e;fill-opacity:1;fill-rule:nonzero;stroke:none;stroke-width:0.45334187;stroke-linecap:butt;stroke-linejoin:miter;stroke-miterlimit:4;stroke-dasharray:none;stroke-dashoffset:0;stroke-opacity:1;color-rendering:auto;image-rendering:auto;shape-rendering:auto;text-rendering:auto;enable-background:accumulate" />
  <path
     inkscape:connector-curvature="0"
     id="path1379"
     d="m 7.378827,24.2205 c -0.003,0.13989 -0.005,0.27947 -0.005,0.41852 h 6.80404 V 24.2205 Z"
     style="color:#000000;font-style:normal;font-variant:normal;font-weight:normal;font-stretch:normal;font-size:medium;line-height:normal;font-family:sans-serif;font-variant-ligatures:normal;font-variant-position:normal;font-variant-caps:normal;font-variant-numeric:normal;font-variant-alternates:normal;font-feature-settings:normal;text-indent:0;text-align:start;text-decoration:none;text-decoration-line:none;text-decoration-style:solid;text-decoration-color:#000000;letter-spacing:normal;word-spacing:normal;text-transform:none;writing-mode:lr-tb;direction:ltr;text-orientation:mixed;dominant-baseline:auto;baseline-shift:baseline;text-anchor:start;white-space:normal;shape-padding:0;clip-rule:nonzero;display:inline;overflow:visible;visibility:visible;opacity:1;isolation:auto;mix-blend-mode:normal;color-interpolation:sRGB;color-interpolation-filters:linearRGB;solid-color:#000000;solid-opacity:1;vector-effect:none;fill:#7e7e7e;fill-opacity:1;fill-rule:nonzero;stroke:none;stroke-width:0.45334187;stroke-linecap:butt;stroke-linejoin:miter;stroke-miterlimit:4;stroke-dasharray:none;stroke-dashoffset:0;stroke-opacity:1;color-rendering:auto;image-rendering:auto;shape-rendering:auto;text-rendering:auto;enable-background:accumulate" />
  <path
     inkscape:connector-curvature="0"
     id="path1381"
     d="m 28.017717,27.4436 v 0.83265 h 8.4086 c 0.0362,-0.26218 0.0719,-0.53914 0.10464,-0.83265 z"
     style="color:#000000;font-style:normal;font-variant:normal;font-weight:normal;font-stretch:normal;font-size:medium;line-height:normal;font-family:sans-serif;font-variant-ligatures:normal;font-variant-position:normal;font-variant-caps:normal;font-variant-numeric:normal;font-variant-alternates:normal;font-feature-settings:normal;text-indent:0;text-align:start;text-decoration:none;text-decoration-line:none;text-decoration-style:solid;text-decoration-color:#000000;letter-spacing:normal;word-spacing:normal;text-transform:none;writing-mode:lr-tb;direction:ltr;text-orientation:mixed;dominant-baseline:auto;baseline-shift:baseline;text-anchor:start;white-space:normal;shape-padding:0;clip-rule:nonzero;display:inline;overflow:visible;visibility:visible;opacity:1;isolation:auto;mix-blend-mode:normal;color-interpolation:sRGB;color-interpolation-filters:linearRGB;solid-color:#000000;solid-opacity:1;vector-effect:none;fill:#7e7e7e;fill-opacity:1;fill-rule:nonzero;stroke:none;stroke-width:0.71399915;stroke-linecap:butt;stroke-linejoin:miter;stroke-miterlimit:4;stroke-dasharray:none;stroke-dashoffset:0;stroke-opacity:1;color-rendering:auto;image-rendering:auto;shape-rendering:auto;text-rendering:auto;enable-background:accumulate" />
  <path
     inkscape:connector-curvature="0"
     id="path1383"
     d="m 28.017717,26.766 v 0.38091 h 8.5446 c 0.0126,-0.12497 0.0246,-0.25168 0.0357,-0.38091 z"
     style="color:#000000;font-style:normal;font-variant:normal;font-weight:normal;font-stretch:normal;font-size:medium;line-height:normal;font-family:sans-serif;font-variant-ligatures:normal;font-variant-position:normal;font-variant-caps:normal;font-variant-numeric:normal;font-variant-alternates:normal;font-feature-settings:normal;text-indent:0;text-align:start;text-decoration:none;text-decoration-line:none;text-decoration-style:solid;text-decoration-color:#000000;letter-spacing:normal;word-spacing:normal;text-transform:none;writing-mode:lr-tb;direction:ltr;text-orientation:mixed;dominant-baseline:auto;baseline-shift:baseline;text-anchor:start;white-space:normal;shape-padding:0;clip-rule:nonzero;display:inline;overflow:visible;visibility:visible;opacity:1;isolation:auto;mix-blend-mode:normal;color-interpolation:sRGB;color-interpolation-filters:linearRGB;solid-color:#000000;solid-opacity:1;vector-effect:none;fill:#7e7e7e;fill-opacity:1;fill-rule:nonzero;stroke:none;stroke-width:0.48478028;stroke-linecap:butt;stroke-linejoin:miter;stroke-miterlimit:4;stroke-dasharray:none;stroke-dashoffset:0;stroke-opacity:1;color-rendering:auto;image-rendering:auto;shape-rendering:auto;text-rendering:auto;enable-background:accumulate" />
  <path
     inkscape:connector-curvature="0"
     style="color:#000000;font-style:normal;font-variant:normal;font-weight:normal;font-stretch:normal;font-size:medium;line-height:normal;font-family:sans-serif;font-variant-ligatures:normal;font-variant-position:normal;font-variant-caps:normal;font-variant-numeric:normal;font-variant-alternates:normal;font-feature-settings:normal;text-indent:0;text-align:start;text-decoration:none;text-decoration-line:none;text-decoration-style:solid;text-decoration-color:#000000;letter-spacing:normal;word-spacing:normal;text-transform:none;writing-mode:lr-tb;direction:ltr;text-orientation:mixed;dominant-baseline:auto;baseline-shift:baseline;text-anchor:start;white-space:normal;shape-padding:0;clip-rule:nonzero;display:inline;overflow:visible;visibility:visible;opacity:1;isolation:auto;mix-blend-mode:normal;color-interpolation:sRGB;color-interpolation-filters:linearRGB;solid-color:#000000;solid-opacity:1;vector-effect:none;fill:#7e7e7e;fill-opacity:1;fill-rule:nonzero;stroke:none;stroke-width:0.69478357;stroke-linecap:butt;stroke-linejoin:miter;stroke-miterlimit:4;stroke-dasharray:none;stroke-dashoffset:0;stroke-opacity:1;color-rendering:auto;image-rendering:auto;shape-rendering:auto;text-rendering:auto;enable-background:accumulate"
     d="m 14.178007,24.63903 v 0.87027 h 8.82012 v -0.87027 z"
     id="path1385" />
  <path
     inkscape:connector-curvature="0"
     id="path1387"
     d="m 14.178007,26.12603 v 0.36206 h 8.82012 v -0.36206 z"
     style="color:#000000;font-style:normal;font-variant:normal;font-weight:normal;font-stretch:normal;font-size:medium;line-height:normal;font-family:sans-serif;font-variant-ligatures:normal;font-variant-position:normal;font-variant-caps:normal;font-variant-numeric:normal;font-variant-alternates:normal;font-feature-settings:normal;text-indent:0;text-align:start;text-decoration:none;text-decoration-line:none;text-decoration-style:solid;text-decoration-color:#000000;letter-spacing:normal;word-spacing:normal;text-transform:none;writing-mode:lr-tb;direction:ltr;text-orientation:mixed;dominant-baseline:auto;baseline-shift:baseline;text-anchor:start;white-space:normal;shape-padding:0;clip-rule:nonzero;display:inline;overflow:visible;visibility:visible;opacity:1;isolation:auto;mix-blend-mode:normal;color-interpolation:sRGB;color-interpolation-filters:linearRGB;solid-color:#000000;solid-opacity:1;vector-effect:none;fill:#7e7e7e;fill-opacity:1;fill-rule:nonzero;stroke:none;stroke-width:0.4481383;stroke-linecap:butt;stroke-linejoin:miter;stroke-miterlimit:4;stroke-dasharray:none;stroke-dashoffset:0;stroke-opacity:1;color-rendering:auto;image-rendering:auto;shape-rendering:auto;text-rendering:auto;enable-background:accumulate" />
  <path
     inkscape:connector-curvature="0"
     id="path1389"
     d="m 22.998127,22.24853 v 0.38088 h 5.01961 v -0.38088 z"
     style="color:#000000;font-style:normal;font-variant:normal;font-weight:normal;font-stretch:normal;font-size:medium;line-height:normal;font-family:sans-serif;font-variant-ligatures:normal;font-variant-position:normal;font-variant-caps:normal;font-variant-numeric:normal;font-variant-alternates:normal;font-feature-settings:normal;text-indent:0;text-align:start;text-decoration:none;text-decoration-line:none;text-decoration-style:solid;text-decoration-color:#000000;letter-spacing:normal;word-spacing:normal;text-transform:none;writing-mode:lr-tb;direction:ltr;text-orientation:mixed;dominant-baseline:auto;baseline-shift:baseline;text-anchor:start;white-space:normal;shape-padding:0;clip-rule:nonzero;display:inline;overflow:visible;visibility:visible;opacity:1;isolation:auto;mix-blend-mode:normal;color-interpolation:sRGB;color-interpolation-filters:linearRGB;solid-color:#000000;solid-opacity:1;vector-effect:none;fill:#7e7e7e;fill-opacity:1;fill-rule:nonzero;stroke:none;stroke-width:0.34674892;stroke-linecap:butt;stroke-linejoin:miter;stroke-miterlimit:4;stroke-dasharray:none;stroke-dashoffset:0;stroke-opacity:1;color-rendering:auto;image-rendering:auto;shape-rendering:auto;text-rendering:auto;enable-background:accumulate" />
  <path
     inkscape:connector-curvature="0"
     style="color:#000000;font-style:normal;font-variant:normal;font-weight:normal;font-stretch:normal;font-size:medium;line-height:normal;font-family:sans-serif;font-variant-ligatures:normal;font-variant-position:normal;font-variant-caps:normal;font-variant-numeric:normal;font-variant-alternates:normal;font-feature-settings:normal;text-indent:0;text-align:start;text-decoration:none;text-decoration-line:none;text-decoration-style:solid;text-decoration-color:#000000;letter-spacing:normal;word-spacing:normal;text-transform:none;writing-mode:lr-tb;direction:ltr;text-orientation:mixed;dominant-baseline:auto;baseline-shift:baseline;text-anchor:start;white-space:normal;shape-padding:0;clip-rule:nonzero;display:inline;overflow:visible;visibility:visible;opacity:1;isolation:auto;mix-blend-mode:normal;color-interpolation:sRGB;color-interpolation-filters:linearRGB;solid-color:#000000;solid-opacity:1;vector-effect:none;fill:#7e7e7e;fill-opacity:1;fill-rule:nonzero;stroke:none;stroke-width:0.34674892;stroke-linecap:butt;stroke-linejoin:miter;stroke-miterlimit:4;stroke-dasharray:none;stroke-dashoffset:0;stroke-opacity:1;color-rendering:auto;image-rendering:auto;shape-rendering:auto;text-rendering:auto;enable-background:accumulate"
     d="m 22.998127,21.71928 v 0.38088 h 5.01961 v -0.38088 z"
     id="path1391" />
  <path
     inkscape:connector-curvature="0"
     id="path1393"
     d="m 22.998127,21.19002 v 0.38089 h 5.01961 v -0.38089 z"
     style="color:#000000;font-style:normal;font-variant:normal;font-weight:normal;font-stretch:normal;font-size:medium;line-height:normal;font-family:sans-serif;font-variant-ligatures:normal;font-variant-position:normal;font-variant-caps:normal;font-variant-numeric:normal;font-variant-alternates:normal;font-feature-settings:normal;text-indent:0;text-align:start;text-decoration:none;text-decoration-line:none;text-decoration-style:solid;text-decoration-color:#000000;letter-spacing:normal;word-spacing:normal;text-transform:none;writing-mode:lr-tb;direction:ltr;text-orientation:mixed;dominant-baseline:auto;baseline-shift:baseline;text-anchor:start;white-space:normal;shape-padding:0;clip-rule:nonzero;display:inline;overflow:visible;visibility:visible;opacity:1;isolation:auto;mix-blend-mode:normal;color-interpolation:sRGB;color-interpolation-filters:linearRGB;solid-color:#000000;solid-opacity:1;vector-effect:none;fill:#7e7e7e;fill-opacity:1;fill-rule:nonzero;stroke:none;stroke-width:0.34674892;stroke-linecap:butt;stroke-linejoin:miter;stroke-miterlimit:4;stroke-dasharray:none;stroke-dashoffset:0;stroke-opacity:1;color-rendering:auto;image-rendering:auto;shape-rendering:auto;text-rendering:auto;enable-background:accumulate" />
  <path
     inkscape:connector-curvature="0"
     style="opacity:1;vector-effect:none;fill:none;fill-opacity:1;fill-rule:evenodd;stroke:#f54529;stroke-width:0.36485592;stroke-linecap:square;stroke-linejoin:miter;stroke-miterlimit:4;stroke-dasharray:none;stroke-dashoffset:0;stroke-opacity:1;paint-order:normal"
     d="m 21.977127,19.69247 c 4.1628,0 14.03607,0.62554 14.29897,1.65152 0.75716,2.95494 0.27447,6.20243 0,7.93796 -0.16577,1.04815 -10.12298,2.29083 -14.29897,2.29083 -4.17598,0 -14.19854,-1.23356 -14.29897,-2.29083 -0.17526,-1.84512 -0.58708,-5.15834 0,-7.93796 0.21909,-1.03728 10.13617,-1.65152 14.29897,-1.65152 z"
     id="path1397" />
  <path
     inkscape:connector-curvature="0"
     style="opacity:1;vector-effect:none;fill:#ff791f;fill-opacity:1;fill-rule:evenodd;stroke:none;stroke-width:0.02539634;stroke-linecap:square;stroke-linejoin:miter;stroke-miterlimit:4;stroke-dasharray:none;stroke-dashoffset:0;stroke-opacity:1;paint-order:normal"
     d="m 3.304937,12.96092 a 2.3001895,2.2155584 0 0 0 -2.3002,2.21558 2.3001895,2.2155584 0 0 0 0.55404,1.43822 2.3001895,2.2155584 0 0 1 -0.32885,-1.13691 2.3001895,2.2155584 0 0 1 2.30021,-2.21559 2.3001895,2.2155584 0 0 1 1.74611,0.77731 2.3001895,2.2155584 0 0 0 -1.97131,-1.07861 z"
     id="path1399" />
  <g
     aria-label="visdat"
     transform="scale(0.99893005,1.0010711)"
     style="font-style:normal;font-variant:normal;font-weight:bold;font-stretch:normal;font-size:5.21010399px;line-height:1.25;font-family:'Contrail One';-inkscape-font-specification:'Contrail One Bold';font-variant-ligatures:normal;font-variant-position:normal;font-variant-caps:normal;font-variant-numeric:normal;font-variant-alternates:normal;font-feature-settings:normal;text-indent:0;text-align:center;text-decoration:none;text-decoration-line:none;text-decoration-style:solid;text-decoration-color:#000000;letter-spacing:0px;word-spacing:0px;text-transform:none;writing-mode:lr-tb;direction:ltr;text-orientation:mixed;dominant-baseline:auto;baseline-shift:baseline;text-anchor:middle;white-space:normal;shape-padding:0;opacity:1;vector-effect:none;fill:#f56c4f;fill-opacity:1;fill-rule:evenodd;stroke:#ffffff;stroke-width:0.94234782;stroke-linecap:round;stroke-linejoin:round;stroke-miterlimit:4;stroke-dasharray:none;stroke-dashoffset:0;stroke-opacity:1;paint-order:markers stroke fill"
     id="text1403">
    <path
       d="m 10.251289,38.191143 0.582575,-2.164941 q 0.01526,-0.05851 0.06869,-0.06106 l 0.534239,-0.01781 q 0.0636,0.0051 0.0636,0.06614 l -1.035406,2.933227 q -0.0229,0.0636 -0.06614,0.06869 l -0.5215195,0.01781 q -0.048336,-0.0025 -0.055968,-0.04834 L 9.4244902,36.026202 q 0.00763,-0.05851 0.0636,-0.06106 l 0.5011672,-0.01781 q 0.058512,0.0025 0.0636,0.06614 z"
       style="fill:#f56c4f;fill-opacity:1;stroke:#ffffff;stroke-width:0.94234782;stroke-miterlimit:4;stroke-dasharray:none;paint-order:markers stroke fill"
       id="path883" />
    <path
       d="m 12.37807,35.670042 q -0.157728,0 -0.251856,-0.09922 -0.09413,-0.09922 -0.09413,-0.2544 0,-0.157728 0.124656,-0.27984 0.1272,-0.124655 0.284928,-0.124655 0.157727,0 0.254399,0.09922 0.09922,0.09922 0.09922,0.256944 0,0.155184 -0.129744,0.27984 -0.129744,0.122111 -0.287471,0.122111 z m 0.282383,0.34344 -0.330719,2.933227 q -0.0051,0.03562 -0.01781,0.05088 -0.01272,0.01526 -0.04834,0.01781 l -0.511343,0.01781 q -0.05597,-0.0051 -0.05597,-0.04834 l 0.335807,-2.958667 q 0.01018,-0.05597 0.0636,-0.06106 l 0.496079,-0.01781 q 0.06869,0.0051 0.06869,0.06614 z"
       style="fill:#f56c4f;fill-opacity:1;stroke:#ffffff;stroke-width:0.94234782;stroke-miterlimit:4;stroke-dasharray:none;paint-order:markers stroke fill"
       id="path885" />
    <path
       d="m 14.481954,36.540089 -0.287471,-0.01272 q -0.122112,0 -0.193344,0.05597 -0.06869,0.05597 -0.06869,0.162816 0,0.104304 0.03816,0.231503 0.05088,0.170448 0.175536,0.396864 0.1272,0.226416 0.175536,0.320543 0.147551,0.29256 0.147551,0.557136 0,0.384143 -0.226415,0.592751 -0.223872,0.206063 -0.681791,0.206063 -0.226416,0 -0.361248,-0.02544 -0.134832,-0.0229 -0.150095,-0.03562 -0.01272,-0.01526 -0.01272,-0.04579 l 0.06614,-0.470639 q 0.0051,-0.0636 0.04325,-0.0636 0.0407,0 0.15264,0.02798 0.111936,0.02798 0.195888,0.02798 0.310367,0 0.310367,-0.246767 0,-0.175536 -0.07632,-0.328176 -0.07377,-0.15264 -0.162815,-0.315455 -0.0865,-0.162816 -0.134832,-0.259488 -0.04834,-0.09922 -0.10176,-0.272208 -0.05088,-0.172991 -0.05088,-0.325631 0,-0.35616 0.211152,-0.574943 0.213696,-0.218784 0.620735,-0.218784 0.262031,0 0.409583,0.02544 0.0636,0.01018 0.0636,0.06614 l -0.05597,0.452831 q 0,0.07123 -0.04579,0.07123 z"
       style="fill:#f56c4f;fill-opacity:1;stroke:#ffffff;stroke-width:0.94234782;stroke-miterlimit:4;stroke-dasharray:none;paint-order:markers stroke fill"
       id="path887" />
    <path
       d="m 16.308544,38.677046 q -0.231504,0.373967 -0.559679,0.373967 -0.440112,0 -0.602927,-0.452831 -0.08904,-0.244224 -0.08904,-0.666527 0,-0.424847 0.05597,-0.719951 0.05851,-0.295103 0.101759,-0.447743 0.04325,-0.155184 0.11448,-0.318 0.07378,-0.162815 0.16536,-0.272207 0.208608,-0.249312 0.526607,-0.249312 0.234048,0 0.358704,0.111936 0.124655,0.111936 0.211151,0.333263 l 0.145008,-1.564557 q 0.0076,-0.06614 0.06869,-0.06869 l 0.498623,-0.01781 q 0.0636,0.0076 0.0636,0.06869 l -0.470639,4.159433 q -0.0076,0.06614 -0.06614,0.06869 l -0.511343,0.01781 q -0.05342,-0.0051 -0.05342,-0.04834 z m -0.610559,-0.819167 q 0,0.608015 0.325631,0.608015 0.142464,0 0.231504,-0.129744 0.08904,-0.132287 0.15264,-0.526607 0.06614,-0.394319 0.06614,-0.574943 0,-0.180624 -0.0025,-0.22896 -0.0025,-0.04834 -0.01018,-0.127199 -0.0076,-0.08141 -0.02798,-0.134832 -0.02035,-0.05597 -0.05342,-0.111936 -0.06614,-0.109392 -0.213696,-0.109392 -0.147552,0 -0.234048,0.132288 -0.0865,0.129744 -0.134831,0.348527 -0.09922,0.468096 -0.09922,0.854783 z"
       style="fill:#f56c4f;fill-opacity:1;stroke:#ffffff;stroke-width:0.94234782;stroke-miterlimit:4;stroke-dasharray:none;paint-order:markers stroke fill"
       id="path889" />
    <path
       d="m 19.905754,36.013482 -0.33072,2.933227 q -0.0076,0.06614 -0.06614,0.06869 l -0.513887,0.01781 q -0.05342,-0.0051 -0.05342,-0.04834 l 0.04834,-0.345983 q -0.117024,0.198432 -0.256943,0.305279 -0.137376,0.106848 -0.310368,0.106848 -0.172992,0 -0.295104,-0.05851 -0.122111,-0.06106 -0.200975,-0.157727 -0.07632,-0.09922 -0.124656,-0.236592 -0.08904,-0.244224 -0.08904,-0.666527 0,-0.424847 0.05597,-0.719951 0.05851,-0.295103 0.10176,-0.447743 0.04325,-0.155184 0.11448,-0.318 0.07378,-0.162815 0.165359,-0.272207 0.208608,-0.249312 0.526608,-0.249312 0.236591,0 0.361247,0.11448 0.124656,0.111936 0.208608,0.333263 l 0.03053,-0.345983 q 0.0051,-0.05597 0.0636,-0.06106 l 0.498623,-0.01781 q 0.06614,0.0051 0.06614,0.06614 z m -1.551838,1.844397 q 0,0.608015 0.325632,0.608015 0.142463,0 0.231503,-0.129744 0.08904,-0.132287 0.15264,-0.526607 0.06614,-0.394319 0.06614,-0.574943 0,-0.180624 -0.0025,-0.22896 -0.0025,-0.04834 -0.01018,-0.127199 -0.0076,-0.08141 -0.02798,-0.134832 -0.02035,-0.05597 -0.05342,-0.111936 -0.06614,-0.109392 -0.213696,-0.109392 -0.147551,0 -0.234047,0.132288 -0.0865,0.129744 -0.134832,0.348527 -0.09922,0.468096 -0.09922,0.854783 z"
       style="fill:#f56c4f;fill-opacity:1;stroke:#ffffff;stroke-width:0.94234782;stroke-miterlimit:4;stroke-dasharray:none;paint-order:markers stroke fill"
       id="path891" />
    <path
       d="m 20.737641,35.957514 q 0.05851,-0.559679 0.07632,-0.577487 0.01781,-0.02035 0.05342,-0.0229 l 0.485903,-0.01781 q 0.06869,0.0051 0.06869,0.0636 -0.04834,0.282383 -0.08141,0.541871 l 0.592751,-0.02035 q 0.06106,0.0025 0.06106,0.06614 l -0.07123,0.404495 q -0.01018,0.06106 -0.0636,0.0636 l -0.582575,0.0229 q -0.172991,1.556926 -0.172991,1.717198 0,0.297647 0.254399,0.297647 0.129744,0 0.251856,-0.0407 0.122112,-0.0407 0.15264,-0.0407 0.05342,0 0.05342,0.06614 l -0.05342,0.445199 q -0.0051,0.03816 -0.02035,0.05597 -0.01272,0.01781 -0.124656,0.04325 -0.109392,0.02544 -0.376512,0.02544 -0.391775,0 -0.580031,-0.180623 -0.188256,-0.183168 -0.188256,-0.544416 0,-0.361247 0.200976,-1.836765 l -0.249311,0.01018 q -0.0636,-0.0025 -0.0636,-0.0636 l 0.06869,-0.409583 q 0.0076,-0.05851 0.06614,-0.06106 z"
       style="fill:#f56c4f;fill-opacity:1;stroke:#ffffff;stroke-width:0.94234782;stroke-miterlimit:4;stroke-dasharray:none;paint-order:markers stroke fill"
       id="path893" />
  </g>
</svg>
